<?xml version="1.0" encoding="utf-8"?>
<!-- Generator: Adobe Illustrator 25.0.1, SVG Export Plug-In . SVG Version: 6.00 Build 0)  -->
<svg version="1.1" id="Layer_1" xmlns="http://www.w3.org/2000/svg" xmlns:xlink="http://www.w3.org/1999/xlink" x="0px" y="0px"
	 viewBox="0 0 337.6 144.5" style="enable-background:new 0 0 337.6 144.5;" xml:space="preserve">
<style type="text/css">
	.st0{fill:#E31F29;}
	.st1{fill:#FFFFFF;}
	.st2{fill:#504F51;}
</style>
<path class="st0" d="M265.1,23c-25.7,0-46.6,20.8-46.6,46.6s20.8,46.6,46.6,46.6c25.7,0,46.6-20.8,46.6-46.6l0,0
	C311.7,43.8,290.9,23,265.1,23C265.2,23,265.1,23,265.1,23"/>
<path class="st1" d="M231.6,72.7c0,0,0.1,0,0.1-0.1l0.3-0.2c3-1.7,6.8-0.7,8.5,2.3c1.7,3,0.7,6.8-2.3,8.5c-2,1.2-4.4,1.1-6.4-0.1
	c-1.6-0.8-2.9-2-4-3.5c-0.2-0.3-0.5-0.7-0.7-1c-1.7-3-2.1-6.5-1.1-9.7c0.3-0.9,0.7-1.8,1.1-2.6c1.2-2.1,3-3.8,5.1-4.8
	c3.5-1.8,7.7-1.7,11.2,0.1l0.3,0.1l18.5,10.5v21.5c-0.2,3.9-2.2,7.6-5.5,9.8c-2,1.3-4.3,2.1-6.7,2c-1,0-1.9-0.1-2.9-0.3
	c-3.3-0.8-6.2-2.8-7.9-5.8c-0.2-0.3-0.4-0.7-0.6-1.1c-0.7-1.6-1.1-3.4-1-5.2c-0.1-3.4,2.6-6.3,6-6.4c3.4-0.1,6.3,2.6,6.4,6
	c0.1,2.3-1.1,4.4-3.1,5.6l-0.3,0.2l-0.1,0.1c0,0,0,0.1,0,0.1c0,0.1,0.4,0.6,2.6,1h0.4c0.6,0,1.2-0.1,1.8-0.3
	c1.5-0.4,2.7-1.3,3.6-2.6c0.8-1.3,1.2-2.8,1.1-4.3v-14c0-0.9-0.3-1.9-0.8-2.6c-0.3-0.5-0.7-1-1.2-1.3l-0.6-0.3l-12.1-6.9
	c-1.3-0.9-2.8-1.3-4.3-1.2c-1.5,0.1-2.9,0.8-4,1.9c-0.4,0.4-0.8,0.9-1.1,1.4c-0.1,0.1-0.1,0.3-0.2,0.4
	C231.1,71.9,231.4,72.5,231.6,72.7C231.5,72.6,231.5,72.6,231.6,72.7z"/>
<path class="st1" d="M298.7,72.7c0,0-0.1,0-0.1-0.1l-0.3-0.2c-3-1.7-6.8-0.7-8.5,2.3c-1.7,3-0.7,6.8,2.3,8.5c2,1.2,4.4,1.1,6.4-0.1
	c1.6-0.8,2.9-2,4-3.5c0.2-0.3,0.5-0.7,0.7-1c1.7-3,2.1-6.5,1.1-9.7c-0.3-0.9-0.7-1.8-1.1-2.6c-1.2-2.1-3-3.8-5.1-4.8
	c-3.5-1.8-7.7-1.7-11.2,0.1l-0.2,0.1L268,72.2v21.2c0,0.1,0,0.2,0,0.3c0.2,3.9,2.2,7.6,5.5,9.8c2,1.3,4.3,2.1,6.7,2
	c1,0,1.9-0.1,2.9-0.3c3.3-0.8,6.2-2.8,7.9-5.8c0.2-0.3,0.4-0.7,0.6-1.1c0.7-1.6,1.1-3.4,1-5.2c0.1-3.4-2.6-6.3-6.1-6.4
	c-3.4-0.1-6.3,2.6-6.4,6.1c-0.1,2.3,1.1,4.4,3.1,5.6l0.3,0.2l0.1,0.1c0,0,0,0.1,0,0.1c-0.1,0.1-0.4,0.6-2.6,1h-0.4
	c-0.6,0-1.2-0.1-1.8-0.3c-1.5-0.4-2.7-1.3-3.6-2.6c-0.8-1.3-1.2-2.8-1.1-4.3v-14c0-0.9,0.3-1.9,0.8-2.6c0.3-0.5,0.7-1,1.2-1.3
	c0,0,0.5-0.3,0.6-0.3l12.1-6.9c1.3-0.9,2.8-1.3,4.3-1.2c1.5,0.1,2.9,0.8,4,1.9c0.4,0.4,0.8,0.9,1.1,1.4c0,0.1,0.2,0.3,0.2,0.4
	C299.1,71.9,298.9,72.5,298.7,72.7C298.8,72.6,298.8,72.6,298.7,72.7z"/>
<path class="st1" d="M244.1,37.4c2.3-2.5,5.6-3.9,9-3.9c0.4,0,0.8,0,1.2,0.1c1.8,0.2,3.5,0.8,5,1.7c3,1.6,4.1,5.4,2.5,8.5
	s-5.4,4.1-8.5,2.5c-2-1.1-3.3-3.2-3.3-5.5c0-0.1,0-0.2,0-0.3c0,0,0-0.1,0-0.1c0,0-0.1,0-0.1,0c-0.1,0-0.8,0.1-2.1,1.8
	c0,0.1-0.2,0.3-0.2,0.4c-0.3,0.5-0.5,1.1-0.6,1.6c-0.4,1.5-0.2,3,0.4,4.4c0.7,1.4,1.8,2.5,3.2,3.1l12.1,7h0c0.8,0.5,1.7,0.7,2.7,0.7
	c0.6,0,1.2-0.1,1.8-0.4c0,0,0.5-0.3,0.6-0.3l12-7c1.4-0.6,2.5-1.7,3.2-3.1c0.6-1.4,0.8-2.9,0.4-4.4c-0.1-0.6-0.4-1.1-0.6-1.6
	c0-0.1-0.2-0.3-0.2-0.4c-1.4-1.7-2-1.8-2.1-1.8c0,0-0.1,0-0.1,0c0,0,0,0.1,0,0.1s0,0.2,0,0.4c0,3.4-2.8,6.2-6.3,6.2
	c-2.2,0-4.3-1.2-5.4-3.1c-0.5-1-0.8-2-0.8-3.1c0-2.3,1.3-4.4,3.3-5.5c1.5-0.9,3.2-1.5,5-1.7c0.4,0,0.8-0.1,1.2-0.1
	c3.4,0,6.7,1.5,9,4c0.7,0.7,1.2,1.5,1.7,2.3c1.2,2.1,1.8,4.5,1.6,6.8c-0.2,4-2.4,7.6-5.7,9.7l-0.2,0.1L265.1,67l-18.4-10.7l-0.2-0.1
	c-3.3-2.1-5.4-5.7-5.7-9.7c-0.2-2.4,0.4-4.8,1.6-6.8C242.9,38.9,243.5,38.1,244.1,37.4z"/>
<path class="st2" d="M265.1,0c-27.7,0-52.7,16.4-63.8,41.8c4.3,4.1,7.8,9.1,10,14.7c7.2-29.7,37.2-47.9,66.8-40.6
	c29.7,7.2,47.9,37.2,40.6,66.8c-7.2,29.7-37.2,47.9-66.8,40.6c-18.8-4.6-33.8-18.6-39.6-37c-1.8,5.7-4.9,11-8.9,15.4
	c17.8,34,59.8,47.2,93.8,29.5c34-17.8,47.2-59.8,29.5-93.8C314.8,14.4,291,0,265.1,0L265.1,0z"/>
<path class="st2" d="M325.7,3.2v1.3H322v9.7h-1.5V4.6h-3.7V3.2H325.7z"/>
<path class="st2" d="M327,3.2h2.1l3.2,9.3l3.1-9.3h2.1v11h-1.4V7.7c0-0.2,0-0.6,0-1.1s0-1.1,0-1.7l-3.1,9.3h-1.5L328.4,5v0.3
	c0,0.3,0,0.7,0,1.2s0,0.9,0,1.2v6.6H327L327,3.2z"/>
<path class="st0" d="M31.9,90.5c-7.2,0-13.6-4.4-16.3-11h47.7c0.4-2.2,0.7-4.4,0.7-6.6c0-17.7-14.3-32-32-32S0,55.2,0,72.9
	c0.1,17.7,14.5,32,32.2,31.9c12.3-0.1,23.6-7.2,28.8-18.4H43.2C40.1,89.1,36.1,90.5,31.9,90.5z M31.9,55.1c7.2,0,13.7,4.4,16.4,11
	H15.6C18.3,59.5,24.8,55.1,31.9,55.1z"/>
<path class="st0" d="M171.5,41c-17.4-0.2-31.7,13.7-31.9,31.1c0,0.2,0,0.4,0,0.7c0,17.7,14.3,32,32,32s32-14.3,32-32
	c0.1-17.5-13.9-31.7-31.4-31.8C172,41,171.7,41,171.5,41z M189.3,72.8c0,9.8-8,17.7-17.8,17.6s-17.7-8-17.6-17.8
	c0-9.7,7.9-17.6,17.6-17.6C181.3,55,189.3,63,189.3,72.8C189.3,72.8,189.3,72.8,189.3,72.8z"/>
<path class="st0" d="M119.6,14.2v31.9c-5.3-3.3-11.5-5.1-17.8-5.1c-17.4-0.2-31.7,13.7-31.9,31.1c0,0.2,0,0.4,0,0.7
	c0,17.6,14.3,31.9,31.9,31.9c6.3,0,12.5-1.8,17.8-5.3v5.3h14.3V14.2H119.6z M119.6,72.8c0,9.8-8,17.7-17.8,17.6
	c-9.8,0-17.7-8-17.6-17.8c0-9.7,7.9-17.6,17.6-17.6c9.4,0,17.4,7.4,17.8,16.6L119.6,72.8z"/>
<path class="st2" d="M161.9,139h2.2c2.3-0.2,4.4-0.9,6.3-2.1v2.2h6v-13.4c0-7.4-6-13.4-13.5-13.4c-7.4,0-13.4,6-13.4,13.4
	C149.5,132.6,154.9,138.4,161.9,139z M162.9,118.1c4.1,0,7.5,3.3,7.5,7.4c0,4.1-3.3,7.5-7.4,7.5s-7.5-3.3-7.5-7.4c0,0,0,0,0,0
	C155.5,121.5,158.8,118.2,162.9,118.1z"/>
<path class="st2" d="M109.6,139h6v-13.4c0-7.4-6-13.4-13.5-13.4c-7.4,0-13.4,6-13.4,13.4c0.1,7.5,6.1,13.5,13.6,13.4
	c2.6,0,5.1-0.8,7.3-2.2L109.6,139z M102.1,133c-4.1,0-7.4-3.4-7.4-7.5s3.4-7.4,7.5-7.4s7.4,3.4,7.4,7.5c0,0,0,0,0,0
	C109.5,129.7,106.2,133,102.1,133C102.1,133,102.1,133,102.1,133L102.1,133z"/>
<path class="st2" d="M132.9,112.1c-2.6,0-5.2,0.8-7.4,2.2v-2.2h-6v32.4h6v-7.7c2.2,1.4,4.8,2.2,7.4,2.2c7.4,0,13.4-6,13.4-13.4
	C146.4,118.1,140.3,112.1,132.9,112.1C132.9,112.1,132.9,112.1,132.9,112.1z M132.9,132.9c-4.1,0-7.4-3.3-7.4-7.4v-0.5
	c0.2-4.1,3.8-7.3,7.9-7c4.1,0.2,7.3,3.8,7,7.9C140.2,129.9,136.9,133,132.9,132.9L132.9,132.9z"/>
<path class="st2" d="M192,112.1h-0.2c-6.3,0-11.4,5-11.5,11.3V139h6.2v-15.5c0.1-3,2.7-5.3,5.7-5.2c2.8,0.1,5.1,2.4,5.2,5.2V139h6.2
	v-15.5C203.4,117.2,198.3,112.2,192,112.1z"/>
<rect x="79.1" y="107.1" class="st2" width="6" height="5"/>
<path class="st2" d="M79.1,114.7v13.9c0,3.1-3.5,4.7-6.8,4.7h-0.8v6.1h0.8c7.3,0,12.8-4.6,12.8-10.8v-13.9H79.1z"/>
</svg>
